<svg xmlns="http://www.w3.org/2000/svg" viewBox="0 0 64 64" width="64" height="64">
  <rect width="64" height="64" rx="14" fill="#1E4A3C"/>
  <path d="M32 12c11 7 15 18 9 31-2 4-6 8-9 9-3-1-7-5-9-9-6-13-2-24 9-31z" fill="none" stroke="#C7A24A" stroke-width="2.2"/>
  <path d="M32 16v34" stroke="#C7A24A" stroke-width="2"/>
  <path d="M32 22l-7 4M32 22l7 4M32 30l-8 5M32 30l8 5M32 38l-7 4M32 38l7 4" stroke="#C7A24A" stroke-width="1.4"/>
  <text x="32" y="60" text-anchor="middle" font-family="Georgia, serif" font-size="9" fill="#E0C77E">SR</text>
</svg>
